<?xml version="1.0" encoding="UTF-8"?>
<svg xmlns="http://www.w3.org/2000/svg" width="760" height="378" viewBox="0 0 760 378" font-family="-apple-system,Segoe UI,Helvetica,Arial,sans-serif" font-size="12">
<text x="20" y="22" font-size="14" font-weight="600" fill="#e6edf3">Attacks flagged at threshold 0.5, and false positives on the same slice</text>
<text x="20" y="38" fill="#9198a1">jev-latest, live runs committed under bench/datasets. Longer bar = more attacks caught; FP = benign requests flagged.</text>
<line x1="250.0" x2="250.0" y1="52" y2="344" stroke="#3d444d" stroke-width="1"/>
<text x="250.0" y="358" text-anchor="middle" fill="#9198a1">0%</text>
<line x1="350.0" x2="350.0" y1="52" y2="344" stroke="#3d444d" stroke-width="1"/>
<text x="350.0" y="358" text-anchor="middle" fill="#9198a1">25%</text>
<line x1="450.0" x2="450.0" y1="52" y2="344" stroke="#3d444d" stroke-width="1"/>
<text x="450.0" y="358" text-anchor="middle" fill="#9198a1">50%</text>
<line x1="550.0" x2="550.0" y1="52" y2="344" stroke="#3d444d" stroke-width="1"/>
<text x="550.0" y="358" text-anchor="middle" fill="#9198a1">75%</text>
<line x1="650.0" x2="650.0" y1="52" y2="344" stroke="#3d444d" stroke-width="1"/>
<text x="650.0" y="358" text-anchor="middle" fill="#9198a1">100%</text>
<text x="705" y="50" text-anchor="middle" fill="#9198a1">FP</text>
<text x="20" y="74" font-weight="600" fill="#e6edf3">deepset/prompt-injections, single turn, en/de</text>
<text x="240" y="99" text-anchor="end" fill="#e6edf3">text only</text>
<rect x="250" y="87" width="400" height="16" rx="3" fill="#21262d"/>
<rect x="250" y="87" width="251.0" height="16" rx="3" fill="#3987e5"/>
<text x="495.0" y="99" text-anchor="end" fill="#ffffff" font-weight="600">63%</text>
<text x="705" y="99" text-anchor="middle" fill="#9198a1">0%</text>
<text x="240" y="125" text-anchor="end" fill="#e6edf3">text + deployment_context</text>
<rect x="250" y="113" width="400" height="16" rx="3" fill="#21262d"/>
<rect x="250" y="113" width="378.7" height="16" rx="3" fill="#3987e5"/>
<text x="622.7" y="125" text-anchor="end" fill="#ffffff" font-weight="600">95%</text>
<text x="705" y="125" text-anchor="middle" fill="#9198a1">0.8%</text>
<text x="20" y="150" font-weight="600" fill="#e6edf3">suite v1, text only</text>
<text x="240" y="175" text-anchor="end" fill="#e6edf3">Chinese instruction override</text>
<rect x="250" y="163" width="400" height="16" rx="3" fill="#21262d"/>
<rect x="250" y="163" width="362.7" height="16" rx="3" fill="#3987e5"/>
<text x="606.7" y="175" text-anchor="end" fill="#ffffff" font-weight="600">91%</text>
<text x="705" y="175" text-anchor="middle" fill="#9198a1">0%</text>
<text x="240" y="201" text-anchor="end" fill="#e6edf3">multi-turn, attack spliced in</text>
<rect x="250" y="189" width="400" height="16" rx="3" fill="#21262d"/>
<rect x="250" y="189" width="366.4" height="16" rx="3" fill="#3987e5"/>
<text x="610.4" y="201" text-anchor="end" fill="#ffffff" font-weight="600">92%</text>
<text x="705" y="201" text-anchor="middle" fill="#9198a1">1.6%</text>
<text x="240" y="227" text-anchor="end" fill="#e6edf3">indirect: LLMail-Inject emails</text>
<rect x="250" y="215" width="400" height="16" rx="3" fill="#21262d"/>
<rect x="250" y="215" width="281.0" height="16" rx="3" fill="#3987e5"/>
<text x="525.0" y="227" text-anchor="end" fill="#ffffff" font-weight="600">70%</text>
<text x="705" y="227" text-anchor="middle" fill="#9198a1">0%</text>
<text x="240" y="253" text-anchor="end" fill="#e6edf3">indirect: BIPIA emails</text>
<rect x="250" y="241" width="400" height="16" rx="3" fill="#21262d"/>
<rect x="250" y="241" width="74.0" height="16" rx="3" fill="#3987e5"/>
<text x="318.0" y="253" text-anchor="end" fill="#ffffff" font-weight="600">18%</text>
<text x="705" y="253" text-anchor="middle" fill="#9198a1">0%</text>
<text x="20" y="278" font-weight="600" fill="#e6edf3">held-out tool results, the shipped core</text>
<text x="240" y="303" text-anchor="end" fill="#e6edf3">untrusted off</text>
<rect x="250" y="291" width="400" height="16" rx="3" fill="#21262d"/>
<rect x="250" y="291" width="88.8" height="16" rx="3" fill="#3987e5"/>
<text x="332.8" y="303" text-anchor="end" fill="#ffffff" font-weight="600">22%</text>
<text x="705" y="303" text-anchor="middle" fill="#9198a1">0.1%</text>
<text x="240" y="329" text-anchor="end" fill="#e6edf3">untrusted on</text>
<rect x="250" y="317" width="400" height="16" rx="3" fill="#21262d"/>
<rect x="250" y="317" width="324.0" height="16" rx="3" fill="#d95926"/>
<text x="568.0" y="329" text-anchor="end" fill="#ffffff" font-weight="600">81%</text>
<text x="705" y="329" text-anchor="middle" fill="#9198a1">0.1%</text>
</svg>
